<?xml version="1.0" encoding="UTF-8"?>
<svg width="22px" height="22px" viewBox="0 0 22 22" version="1.1" xmlns="http://www.w3.org/2000/svg" xmlns:xlink="http://www.w3.org/1999/xlink">
    <!-- Generator: Sketch 52.2 (67145) - http://www.bohemiancoding.com/sketch -->
    <title>Marker_Bar</title>
    <desc>Created with Sketch.</desc>
    <g id="Marker_Bar" stroke="none" stroke-width="1" fill="none" fill-rule="evenodd">
        <circle id="Oval" stroke="#FFFFFF" stroke-width="1.5" fill="#764BEE" cx="11" cy="11" r="10.25"></circle>
        <path d="M16.3021851,7.27031759 C16.3021851,6.79901225 15.9192495,6.41607666 15.4479441,6.41607666 L6.55205587,6.41607666 C6.08075053,6.41607666 5.69781494,6.79901225 5.69781494,7.27031759 C5.69781494,7.47651367 5.77440206,7.68270976 5.91579366,7.83588399 L10.4108683,12.8965251 L10.4108683,15.8421834 L8.05434163,15.8421834 C7.73031921,15.8421834 7.46520996,16.1072927 7.46520996,16.4313151 C7.46520996,16.7553375 7.73031921,17.0204468 8.05434163,17.0204468 L13.9456584,17.0204468 C14.2696808,17.0204468 14.53479,16.7553375 14.53479,16.4313151 C14.53479,16.1072927 14.2696808,15.8421834 13.9456584,15.8421834 L11.5891317,15.8421834 L11.5891317,12.8965251 L16.0842063,7.83588399 C16.2255979,7.68270976 16.3021851,7.47651367 16.3021851,7.27031759 Z M8.30766825,8.77260335 L7.26490519,7.59434001 L14.7409861,7.59434001 L13.6923317,8.77260335 L8.30766825,8.77260335 Z" id="Shape" fill="#FFFFFF" fill-rule="nonzero"></path>
    </g>
</svg>