<?xml version="1.0" encoding="UTF-8"?>
<svg width="44px" height="44px" viewBox="0 0 44 44" version="1.1" xmlns="http://www.w3.org/2000/svg" xmlns:xlink="http://www.w3.org/1999/xlink">
    <!-- Generator: Sketch 52.2 (67145) - http://www.bohemiancoding.com/sketch -->
    <title>Marker_식당</title>
    <desc>Created with Sketch.</desc>
    <g id="3차" stroke="none" stroke-width="1" fill="none" fill-rule="evenodd">
        <g id="Marker_식당">
            <circle id="Oval" fill="#FFFFFF" cx="22" cy="22" r="22"></circle>
            <path d="M25.6021479,16.6054432 L25.6021479,22.6091204 C25.6021479,23.7097946 26.5026995,24.6103462 27.6033736,24.6103462 L28.6039865,24.6103462 L28.6039865,31.6146362 C28.6039865,32.1649733 29.0542623,32.6152491 29.6045994,32.6152491 C30.1549364,32.6152491 30.6052122,32.1649733 30.6052122,31.6146362 L30.6052122,13.7336843 C30.6052122,13.083286 29.9948384,12.6029918 29.3644523,12.7530837 C27.2031285,13.2834085 25.6021479,15.1145301 25.6021479,16.6054432 Z M20.5990836,19.6072818 L18.5978578,19.6072818 L18.5978578,13.6036046 C18.5978578,13.0532676 18.1475821,12.6029918 17.597245,12.6029918 C17.0469079,12.6029918 16.5966321,13.0532676 16.5966321,13.6036046 L16.5966321,19.6072818 L14.5954064,19.6072818 L14.5954064,13.6036046 C14.5954064,13.0532676 14.1451306,12.6029918 13.5947935,12.6029918 C13.0444564,12.6029918 12.5941806,13.0532676 12.5941806,13.6036046 L12.5941806,19.6072818 C12.5941806,21.8186363 14.3852777,23.6097333 16.5966321,23.6097333 L16.5966321,31.6146362 C16.5966321,32.1649733 17.0469079,32.6152491 17.597245,32.6152491 C18.1475821,32.6152491 18.5978578,32.1649733 18.5978578,31.6146362 L18.5978578,23.6097333 C20.8092123,23.6097333 22.6003093,21.8186363 22.6003093,19.6072818 L22.6003093,13.6036046 C22.6003093,13.0532676 22.1500335,12.6029918 21.5996964,12.6029918 C21.0493594,12.6029918 20.5990836,13.0532676 20.5990836,13.6036046 L20.5990836,19.6072818 Z" id="Shape" fill="#FF8D14" fill-rule="nonzero"></path>
        </g>
    </g>
</svg>