<?xml version="1.0" encoding="UTF-8"?>
<svg width="22px" height="22px" viewBox="0 0 22 22" version="1.1" xmlns="http://www.w3.org/2000/svg" xmlns:xlink="http://www.w3.org/1999/xlink">
    <!-- Generator: Sketch 52.2 (67145) - http://www.bohemiancoding.com/sketch -->
    <title>Marker_Cafe</title>
    <desc>Created with Sketch.</desc>
    <g id="Marker_Cafe" stroke="none" stroke-width="1" fill="none" fill-rule="evenodd">
        <circle id="Oval" stroke="#FFFFFF" stroke-width="1.5" fill="#FA71E7" cx="11" cy="11" r="10.25"></circle>
        <path d="M15.4920768,6.58996173 L7.98643456,6.58996173 C7.39670553,6.58996173 6.91419996,7.0724673 6.91419996,7.66219633 L6.91419996,11.9511347 C6.91419996,13.135954 7.87384992,14.0956039 9.05866916,14.0956039 L12.275373,14.0956039 C13.4601922,14.0956039 14.4198422,13.135954 14.4198422,11.9511347 L14.4198422,10.3427828 L15.4920768,10.3427828 C16.0818058,10.3427828 16.5643114,9.86027726 16.5643114,9.27054823 L16.5643114,7.66219633 C16.5643114,7.0724673 16.0818058,6.58996173 15.4920768,6.58996173 Z M15.4920768,9.27054823 L14.4198422,9.27054823 L14.4198422,7.66219633 L15.4920768,7.66219633 L15.4920768,9.27054823 Z M6.37808265,16.2400731 L14.9559595,16.2400731 C15.250824,16.2400731 15.4920768,15.9988204 15.4920768,15.7039558 C15.4920768,15.4090913 15.250824,15.1678385 14.9559595,15.1678385 L6.37808265,15.1678385 C6.08321814,15.1678385 5.84196535,15.4090913 5.84196535,15.7039558 C5.84196535,15.9988204 6.08321814,16.2400731 6.37808265,16.2400731 Z" id="Shape" fill="#FFFFFF" fill-rule="nonzero"></path>
    </g>
</svg>