<?xml version="1.0" encoding="UTF-8"?>
<svg width="22px" height="22px" viewBox="0 0 22 22" version="1.1" xmlns="http://www.w3.org/2000/svg" xmlns:xlink="http://www.w3.org/1999/xlink">
    <!-- Generator: Sketch 52.2 (67145) - http://www.bohemiancoding.com/sketch -->
    <title>Marker_Restaurant</title>
    <desc>Created with Sketch.</desc>
    <g id="Marker_Restaurant" stroke="none" stroke-width="1" fill="none" fill-rule="evenodd">
        <circle id="Oval" stroke="#FFFFFF" stroke-width="1.5" fill="#FF8D14" cx="11" cy="11" r="10.25"></circle>
        <g id="round-restaurant-24px" transform="translate(5.000000, 5.000000)" fill="#FFFFFF" fill-rule="nonzero">
            <path d="M7.98260925,3.03005762 L7.98260925,6.2791802 C7.98260925,6.87485267 8.46997764,7.36222106 9.06565011,7.36222106 L9.60717054,7.36222106 L9.60717054,11.1528641 C9.60717054,11.4507003 9.85085473,11.6943845 10.148691,11.6943845 C10.4465272,11.6943845 10.6902114,11.4507003 10.6902114,11.1528641 L10.6902114,1.47589399 C10.6902114,1.12390571 10.3598839,0.863975904 10.0187261,0.945203969 C8.84904194,1.2322098 7.98260925,2.22319218 7.98260925,3.03005762 Z M5.2750071,4.65461891 L4.19196624,4.65461891 L4.19196624,1.40549633 C4.19196624,1.1076601 3.94828205,0.863975904 3.65044582,0.863975904 C3.35260958,0.863975904 3.10892539,1.1076601 3.10892539,1.40549633 L3.10892539,4.65461891 L2.02588453,4.65461891 L2.02588453,1.40549633 C2.02588453,1.1076601 1.78220033,0.863975904 1.4843641,0.863975904 C1.18652786,0.863975904 0.942843667,1.1076601 0.942843667,1.40549633 L0.942843667,4.65461891 C0.942843667,5.85137906 1.91216524,6.82070063 3.10892539,6.82070063 L3.10892539,11.1528641 C3.10892539,11.4507003 3.35260958,11.6943845 3.65044582,11.6943845 C3.94828205,11.6943845 4.19196624,11.4507003 4.19196624,11.1528641 L4.19196624,6.82070063 C5.38872639,6.82070063 6.35804796,5.85137906 6.35804796,4.65461891 L6.35804796,1.40549633 C6.35804796,1.1076601 6.11436377,0.863975904 5.81652753,0.863975904 C5.5186913,0.863975904 5.2750071,1.1076601 5.2750071,1.40549633 L5.2750071,4.65461891 Z" id="Shape"></path>
        </g>
    </g>
</svg>